<svg width="16" height="16" viewBox="0 0 16 16" fill="none" xmlns="http://www.w3.org/2000/svg">
<mask id="mask0" mask-type="alpha" maskUnits="userSpaceOnUse" x="0" y="0" width="16" height="16">
<rect width="16" height="16" fill="white"/>
</mask>
<g mask="url(#mask0)">
<path d="M5.86889 1.77849C6.05819 1.66181 6.27618 1.60001 6.49854 1.60001H9.50974C9.73271 1.60001 9.95127 1.66214 10.1409 1.77943C10.3305 1.89671 10.4837 2.06451 10.5833 2.26401L11.0513 3.20001H12.4033C12.9338 3.20001 13.4425 3.41072 13.8176 3.78579C14.1926 4.16087 14.4033 4.66957 14.4033 5.20001V6.95601C14.1697 6.7541 13.8976 6.60169 13.6033 6.50801V5.20001C13.6033 4.88175 13.4769 4.57652 13.2519 4.35148C13.0268 4.12643 12.7216 4.00001 12.4033 4.00001H10.8033C10.7293 3.99986 10.6567 3.97913 10.5937 3.94015C10.5307 3.90116 10.4797 3.84544 10.4465 3.77921L9.86814 2.62161C9.83494 2.55498 9.7838 2.49894 9.72048 2.45979C9.65717 2.42064 9.58418 2.39993 9.50974 2.40001H6.49854C6.4244 2.39993 6.3517 2.42047 6.28855 2.45932C6.22541 2.49816 6.1743 2.5538 6.14094 2.62001L5.55854 3.77921C5.52524 3.84529 5.47426 3.90085 5.41127 3.93969C5.34827 3.97853 5.27574 3.99913 5.20174 3.99921H3.60334C3.28508 3.99921 2.97985 4.12563 2.75481 4.35068C2.52977 4.57572 2.40334 4.88095 2.40334 5.19921V11.6C2.40334 11.9183 2.52977 12.2235 2.75481 12.4485C2.97985 12.6736 3.28508 12.8 3.60334 12.8H6.57614L6.44574 13.3224C6.42254 13.416 6.40814 13.5088 6.40254 13.6H3.60254C3.07211 13.6 2.5634 13.3893 2.18833 13.0142C1.81325 12.6391 1.60254 12.1304 1.60254 11.6V5.20001C1.60254 4.66957 1.81325 4.16087 2.18833 3.78579C2.5634 3.41072 3.07211 3.20001 3.60254 3.20001H4.95454L5.42654 2.26081C5.52645 2.06215 5.6796 1.89517 5.86889 1.77849Z" fill="white"/>
<path d="M9.8219 5.37924C9.17941 4.93528 8.3968 4.74147 7.62138 4.83428C6.84596 4.92709 6.1312 5.30013 5.61163 5.88317C5.09206 6.46621 4.80351 7.21906 4.80029 8.00001C4.80029 9.51201 5.84829 10.7784 7.25789 11.1136C7.30895 11.0519 7.36288 10.9927 7.41949 10.936L7.95549 10.4C7.48475 10.3911 7.02702 10.244 6.63928 9.97692C6.25154 9.70984 5.95092 9.33461 5.77485 8.89794C5.59878 8.46128 5.55504 7.98248 5.64907 7.52114C5.74309 7.0598 5.97074 6.6363 6.30366 6.30338C6.63659 5.97046 7.06008 5.74281 7.52142 5.64878C7.98276 5.55476 8.46156 5.5985 8.89823 5.77457C9.33489 5.95064 9.71012 6.25126 9.9772 6.639C10.2443 7.02674 10.3914 7.48447 10.4003 7.95521L11.1107 7.24481H11.1099C10.9225 6.48668 10.4644 5.8232 9.8219 5.37924Z" fill="white"/>
<path d="M7.98405 11.5024C7.75885 11.7275 7.59903 12.0095 7.52165 12.3184L7.22165 13.5168C7.19207 13.636 7.19381 13.7608 7.22672 13.8791C7.25963 13.9974 7.32258 14.1052 7.40946 14.192C7.49633 14.2788 7.60418 14.3417 7.72253 14.3745C7.84088 14.4073 7.96569 14.4089 8.08485 14.3792L9.28325 14.08C9.59205 14.0024 9.87445 13.8432 10.0993 13.6176L13.9633 9.7536C14.2402 9.47226 14.3947 9.09287 14.393 8.69811C14.3914 8.30336 14.2339 7.92524 13.9547 7.64616C13.6755 7.36708 13.2973 7.20966 12.9026 7.2082C12.5078 7.20675 12.1285 7.36138 11.8473 7.6384H11.8481L7.98405 11.5024Z" fill="white"/>
</g>
</svg>
