<svg width="35" height="35" viewBox="0 0 35 35" fill="none" xmlns="http://www.w3.org/2000/svg">
<g clip-path="url(#clip0)">
<path d="M10.3052 2.41394C9.95876 2.06755 9.40309 2.06755 9.0567 2.41394L3.47835 7.9562L1.50825 5.97167C1.16186 5.62528 0.606186 5.62528 0.259794 5.97167C-0.0865979 6.31806 -0.0865979 6.87373 0.259794 7.22012L2.85773 9.83249C3.03093 10.0057 3.25464 10.0923 3.48557 10.0923C3.70928 10.0923 3.93299 10.0057 4.10619 9.83249L10.3124 3.66239C10.6443 3.316 10.6515 2.76033 10.3052 2.41394Z" fill="white"/>
<path d="M5.28291 13.5274C3.09632 13.5274 1.31384 15.3099 1.31384 17.4965C1.31384 19.6831 3.09632 21.4656 5.28291 21.4656C7.46951 21.4656 9.25198 19.6831 9.25198 17.4965C9.24477 15.3099 7.46951 13.5274 5.28291 13.5274ZM5.28291 19.6975C4.07054 19.6975 3.08188 18.7088 3.08188 17.4965C3.08188 16.2841 4.07054 15.2954 5.28291 15.2954C6.49528 15.2954 7.48394 16.2841 7.48394 17.4965C7.48394 18.7088 6.49528 19.6975 5.28291 19.6975Z" fill="white"/>
<path d="M5.28291 24.9078C3.09632 24.9078 1.31384 26.6903 1.31384 28.8769C1.31384 31.0634 3.09632 32.8459 5.28291 32.8459C7.46951 32.8459 9.25198 31.0634 9.25198 28.8769C9.24477 26.683 7.46951 24.9078 5.28291 24.9078ZM5.28291 31.0707C4.07054 31.0707 3.08188 30.082 3.08188 28.8696C3.08188 27.6573 4.07054 26.6686 5.28291 26.6686C6.49528 26.6686 7.48394 27.6573 7.48394 28.8696C7.47673 30.0892 6.49528 31.0707 5.28291 31.0707Z" fill="white"/>
<path d="M34.1057 14.9201H13.6397C13.149 14.9201 12.7521 15.317 12.7521 15.8077C12.7521 16.2985 13.149 16.6954 13.6397 16.6954H34.1057C34.5964 16.6954 34.9933 16.2985 34.9933 15.8077C34.9933 15.317 34.5964 14.9201 34.1057 14.9201Z" fill="white"/>
<path d="M34.1057 18.3047H13.6397C13.149 18.3047 12.7521 18.7016 12.7521 19.1923C12.7521 19.683 13.149 20.0799 13.6397 20.0799H34.1057C34.5964 20.0799 34.9933 19.683 34.9933 19.1923C34.9933 18.7016 34.5964 18.3047 34.1057 18.3047Z" fill="white"/>
<path d="M13.6397 28.0613H34.1057C34.5964 28.0613 34.9933 27.6644 34.9933 27.1737C34.9933 26.683 34.5964 26.2861 34.1057 26.2861H13.6397C13.149 26.2861 12.7521 26.683 12.7521 27.1737C12.7521 27.6644 13.149 28.0613 13.6397 28.0613Z" fill="white"/>
<path d="M34.1057 31.4531C34.5964 31.4531 34.9933 31.0561 34.9933 30.5654C34.9933 30.0747 34.5964 29.6778 34.1057 29.6778H13.6397C13.149 29.6778 12.7521 30.0747 12.7521 30.5654C12.7521 31.0561 13.149 31.4531 13.6397 31.4531H34.1057Z" fill="white"/>
<path d="M12.7588 4.42733C12.7588 4.91805 13.1557 5.31496 13.6464 5.31496H34.1124C34.6031 5.31496 35 4.91805 35 4.42733C35 3.93661 34.6031 3.5397 34.1124 3.5397H13.6392C13.1485 3.5397 12.7588 3.93661 12.7588 4.42733Z" fill="white"/>
<path d="M34.1057 6.93146H13.6397C13.149 6.93146 12.7521 7.32836 12.7521 7.81909C12.7521 8.30981 13.149 8.70671 13.6397 8.70671H34.1057C34.5964 8.70671 34.9933 8.30981 34.9933 7.81909C34.9933 7.32836 34.5964 6.93146 34.1057 6.93146Z" fill="white"/>
</g>
<defs>
<clipPath id="clip0">
<rect width="35" height="35" fill="white"/>
</clipPath>
</defs>
</svg>
